{
  "accessors": [
    {
      "bufferView": 2,
      "componentType": 5126,
      "count": 65532,
      "max": [
        78.06660461425781,
        104.41841125488281,
        191.50021362304688
      ],
      "min": [
        0.0,
        0.05190277099609375,
        0.0
      ],
      "type": "VEC3"
    },
    {
      "bufferView": 2,
      "byteOffset": 786384,
      "componentType": 5126,
      "count": 65532,
      "max": [
        0.9998828172683716,
        0.9999790787696838,
        0.9999002814292908
      ],
      "min": [
        -0.9999704957008362,
        -0.9999534487724304,
        -0.9999730587005615
      ],
      "type": "VEC3"
    },
    {
      "bufferView": 1,
      "componentType": 5126,
      "count": 65532,
      "max": [
        0.9990460276603699,
        0.9990450143814087
      ],
      "min": [
        0.0,
        0.0
      ],
      "type": "VEC2"
    },
    {
      "bufferView": 0,
      "componentType": 5125,
      "count": 358893,
      "type": "SCALAR"
    },
    {
      "bufferView": 2,
      "byteOffset": 1572768,
      "componentType": 5126,
      "count": 65532,
      "max": [
        76.661865234375,
        87.25840759277344,
        191.16920471191406
      ],
      "min": [
        0.0,
        0.0,
        0.11919242143630981
      ],
      "type": "VEC3"
    },
    {
      "bufferView": 2,
      "byteOffset": 2359152,
      "componentType": 5126,
      "count": 65532,
      "max": [
        0.9999532699584961,
        0.999868631362915,
        0.9999901652336121
      ],
      "min": [
        -0.9999704957008362,
        -0.9999982714653015,
        -0.9999736547470093
      ],
      "type": "VEC3"
    },
    {
      "bufferView": 1,
      "byteOffset": 524256,
      "componentType": 5126,
      "count": 65532,
      "max": [
        0.9990460276603699,
        0.9990389943122864
      ],
      "min": [
        0.0,
        0.0
      ],
      "type": "VEC2"
    },
    {
      "bufferView": 0,
      "byteOffset": 1435572,
      "componentType": 5125,
      "count": 357330,
      "type": "SCALAR"
    },
    {
      "bufferView": 2,
      "byteOffset": 3145536,
      "componentType": 5126,
      "count": 15669,
      "max": [
        67.40409851074219,
        104.48190307617188,
        191.50021362304688
      ],
      "min": [
        15.111799240112305,
        5.710700988769531,
        21.875593185424805
      ],
      "type": "VEC3"
    },
    {
      "bufferView": 2,
      "byteOffset": 3333564,
      "componentType": 5126,
      "count": 15669,
      "max": [
        0.9991858005523682,
        0.9997411966323853,
        0.9996851682662964
      ],
      "min": [
        -0.9932314157485962,
        -0.999998152256012,
        -0.9996522068977356
      ],
      "type": "VEC3"
    },
    {
      "bufferView": 1,
      "byteOffset": 1048512,
      "componentType": 5126,
      "count": 15669,
      "max": [
        0.9594820141792297,
        0.9990249872207642
      ],
      "min": [
        0.02253049984574318,
        0.15202699601650238
      ],
      "type": "VEC2"
    },
    {
      "bufferView": 0,
      "byteOffset": 2864892,
      "componentType": 5125,
      "count": 85503,
      "type": "SCALAR"
    }
  ],
  "asset": {
    "extras": {
      "author": "Killer O (https://sketchfab.com/KillerOz1)",
      "license": "CC-BY-4.0 (http://creativecommons.org/licenses/by/4.0/)",
      "source": "https://sketchfab.com/3d-models/illfang-the-kobold-lord-b69337cdb66843c1b67b50d4d6f14b11",
      "title": "Illfang the Kobold Lord"
    },
    "generator": "Sketchfab-12.68.0",
    "version": "2.0"
  },
  "bufferViews": [
    {
      "buffer": 0,
      "byteLength": 3206904,
      "name": "floatBufferViews",
      "target": 34963
    },
    {
      "buffer": 0,
      "byteLength": 1173864,
      "byteOffset": 3206904,
      "byteStride": 8,
      "name": "floatBufferViews",
      "target": 34962
    },
    {
      "buffer": 0,
      "byteLength": 3521592,
      "byteOffset": 4380768,
      "byteStride": 12,
      "name": "floatBufferViews",
      "target": 34962
    }
  ],
  "buffers": [
    {
      "byteLength": 7902360,
      "uri": "scene.bin"
    }
  ],
  "images": [
    {
      "uri": "textures/SculptMaterial_baseColor.png"
    },
    {
      "uri": "textures/SculptMaterial_metallicRoughness.png"
    },
    {
      "uri": "textures/SculptMaterial_emissive.png"
    }
  ],
  "materials": [
    {
      "doubleSided": true,
      "emissiveFactor": [
        1.0,
        1.0,
        1.0
      ],
      "emissiveTexture": {
        "index": 2
      },
      "name": "SculptMaterial",
      "occlusionTexture": {
        "index": 1,
        "strength": 0.8200000000000001
      },
      "pbrMetallicRoughness": {
        "baseColorTexture": {
          "index": 0
        },
        "metallicFactor": 0.8300000000000001,
        "metallicRoughnessTexture": {
          "index": 1
        }
      }
    }
  ],
  "meshes": [
    {
      "name": "Object_0",
      "primitives": [
        {
          "attributes": {
            "NORMAL": 1,
            "POSITION": 0,
            "TEXCOORD_0": 2
          },
          "indices": 3,
          "material": 0,
          "mode": 4
        }
      ]
    },
    {
      "name": "Object_1",
      "primitives": [
        {
          "attributes": {
            "NORMAL": 5,
            "POSITION": 4,
            "TEXCOORD_0": 6
          },
          "indices": 7,
          "material": 0,
          "mode": 4
        }
      ]
    },
    {
      "name": "Object_2",
      "primitives": [
        {
          "attributes": {
            "NORMAL": 9,
            "POSITION": 8,
            "TEXCOORD_0": 10
          },
          "indices": 11,
          "material": 0,
          "mode": 4
        }
      ]
    }
  ],
  "nodes": [
    {
      "children": [
        1
      ],
      "matrix": [
        0.031290967017412186,
        0.0,
        0.0,
        0.0,
        0.0,
        6.947990409103474e-18,
        -0.031290967017412186,
        0.0,
        0.0,
        0.031290967017412186,
        6.947990409103474e-18,
        0.0,
        0.0,
        0.0,
        0.0,
        1.0
      ],
      "name": "Sketchfab_model"
    },
    {
      "children": [
        2,
        3,
        4
      ],
      "matrix": [
        1.0,
        0.0,
        0.0,
        0.0,
        0.0,
        1.0,
        0.0,
        0.0,
        0.0,
        0.0,
        1.0,
        0.0,
        -40.831600189208984,
        -48.3273811340332,
        -0.4506792426109314,
        1.0
      ],
      "name": "Ill fang.obj.cleaner.gles"
    },
    {
      "mesh": 0,
      "name": "Object_2"
    },
    {
      "mesh": 1,
      "name": "Object_3"
    },
    {
      "mesh": 2,
      "name": "Object_4"
    }
  ],
  "samplers": [
    {
      "magFilter": 9729,
      "minFilter": 9987,
      "wrapS": 10497,
      "wrapT": 10497
    }
  ],
  "scene": 0,
  "scenes": [
    {
      "name": "Sketchfab_Scene",
      "nodes": [
        0
      ]
    }
  ],
  "textures": [
    {
      "sampler": 0,
      "source": 0
    },
    {
      "sampler": 0,
      "source": 1
    },
    {
      "sampler": 0,
      "source": 2
    }
  ]
}
